<?xml version="1.0" encoding="UTF-8"?>
<svg id="_Слой_2" data-name="Слой 2" xmlns="http://www.w3.org/2000/svg" viewBox="0 0 187.6 206.82">
  <defs>
    <style>
      .cls-1 {
        fill: #de5b48;
      }

      .cls-2 {
        fill: #1d1d1b;
      }
    </style>
  </defs>
  <g id="_Слой_1-2" data-name="Слой 1">
    <g>
      <path class="cls-2" d="M53.99,56.49L19.56,25.82v30.67H.78V.16h48.04c8.45,0,14.84,1.62,19.17,4.85,4.33,3.24,6.49,8.03,6.49,14.4,0,5.58-1.75,9.91-5.24,12.99-3.13,2.71-7.17,4.12-12.13,4.23l21.75,19.87h-24.88ZM19.56,25.19h27.7c2.09,0,3.91-.36,5.48-1.09,1.98-.99,2.97-2.4,2.97-4.23,0-1.98-.99-3.36-2.97-4.15-1.3-.47-3.13-.7-5.48-.7h-27.7v10.17Z"/>
      <path class="cls-2" d="M83.34,0h74.51v14.08h-56.51v7.35h35.21l6.26,13.3h-41.47v7.67h56.98v14.08h-74.98V0Z"/>
      <path class="cls-2" d="M158.61,84.61c0,6.89-1.54,12.88-4.62,18-2.97,5.01-7.28,8.87-12.91,11.58-5.69,2.71-12.36,4.07-20.03,4.07s-14.42-1.36-20.11-4.07c-5.63-2.71-9.96-6.57-12.99-11.58-3.08-5.11-4.62-11.11-4.62-18v-24.41h18.78v22.85c0,12.99,6.31,19.51,18.93,19.56,12.52,0,18.78-6.52,18.78-19.56v-22.85h18.78v24.41Z"/>
      <path class="cls-2" d="M.78,121.35h18.78v40.84h43.5v15.65H.78v-56.49Z"/>
      <path class="cls-2" d="M52.98,121.35h22.38l18.15,29.42,18.15-29.42h22.38l-22.85,36.62h-8.29v19.87h-18.78v-19.87h-8.29l-22.85-36.62Z"/>
      <path class="cls-2" d="M30.04,94.13h28.56l-9.78,8.45h-10.64c-6.62,0-11.5-1.09-14.63-3.29-3.18-2.19-4.77-5.71-4.77-10.56s1.69-8.68,5.09-11.03c3.34-2.29,8.53-3.44,15.57-3.44h.39v-14.08h-4.62c-6.52,0-12.36,1.02-17.53,3.05-5.48,2.19-9.73,5.37-12.75,9.55-3.29,4.49-4.93,9.91-4.93,16.27,0,8.45,2.82,15.05,8.45,19.79,6.05,5.22,15.02,7.82,26.92,7.82h16.9l13.3-11.5v11.5h14.08v-34.43H30.04v11.89Z"/>
      <rect class="cls-1" x="63.06" y="60.2" width="16.26" height="16.26"/>
      <g>
        <rect class="cls-1" x="142.35" y="132.59" width="16.26" height="28.98"/>
        <rect class="cls-1" x="142.35" y="177.84" width="16.26" height="28.98"/>
        <rect class="cls-1" x="113.37" y="161.58" width="28.98" height="16.26"/>
        <rect class="cls-1" x="158.61" y="161.58" width="28.98" height="16.26"/>
      </g>
    </g>
  </g>
</svg>