<?xml version="1.0" encoding="UTF-8"?>
<svg id="_Слой_2" data-name="Слой 2" xmlns="http://www.w3.org/2000/svg" viewBox="0 0 353.17 96.54">
  <defs>
    <style>
      .cls-1 {
        fill: #1d1d1b;
      }

      .cls-2 {
        fill: #cf634f;
      }
    </style>
  </defs>
  <g id="_Слой_1-2" data-name="Слой 1">
    <g>
      <path class="cls-1" d="M39.57,54.94c-.51.24-1.04.33-1.61.26-.57-.07-1-.26-1.29-.59l-2.04-2.4c3.4-.04,6.65-.68,9.74-1.89,3.09-1.22,5.64-2.86,7.66-4.93,2.02-2.06,3.25-4.32,3.69-6.75.44-2.46-.01-4.73-1.35-6.82-1.34-2.09-3.37-3.74-6.1-4.96-2.72-1.22-5.81-1.83-9.26-1.83H7.45l-2.14,12.09L0,67.33h16.97l1.61-9.26,3.13,3.66c2.57,3.03,6.4,4.84,11.5,5.42,5.1.58,9.97-.23,14.63-2.42l9.72-4.61-8.27-9.78-9.72,4.61ZM21.74,40.15l.53-3.03h14.63c.59,0,1.07.15,1.42.44.35.3.49.65.43,1.07-.07.42-.33.77-.79,1.07-.46.3-.99.44-1.58.44h-14.63Z"/>
      <polygon class="cls-1" points="102.82 55.24 77.09 55.24 77.65 52.24 93.4 52.24 95.54 40.15 79.76 40.15 80.29 37.12 106.02 37.12 108.16 25.03 65.46 25.03 63.32 37.12 62.79 40.15 60.68 52.24 60.13 55.24 58.02 67.33 100.68 67.33 102.82 55.24"/>
      <path class="cls-1" d="M240,25.03l-4.35,24.61c-.29,1.56-1.29,2.88-3.01,3.97-1.73,1.09-3.67,1.63-5.85,1.63s-3.93-.55-5.27-1.65c-1.34-1.1-1.87-2.42-1.58-3.95l4.32-24.61h-16.97l-4.32,24.61c-.57,3.21.02,6.17,1.76,8.88,1.75,2.71,4.38,4.86,7.91,6.44,3.52,1.58,7.54,2.37,12.04,2.37s8.8-.79,12.88-2.37c4.09-1.58,7.47-3.73,10.16-6.44,2.69-2.71,4.32-5.67,4.89-8.88l4.35-24.61h-16.97Z"/>
      <polygon class="cls-1" points="280.96 25.03 263.99 25.03 258.65 55.24 256.54 67.33 299.04 67.33 301.18 55.24 275.62 55.24 280.96 25.03"/>
      <polygon class="cls-1" points="332.78 25.03 320.49 38.7 313.01 25.03 292.62 25.03 309.22 54.48 306.95 67.33 323.92 67.33 326.19 54.48 353.17 25.03 332.78 25.03"/>
      <path class="cls-2" d="M156.24,42.42l25.44-2.14L230.4,0l-47.71,25.43-31.52,17.21c1.81.31,3.23-.07,5.08-.22Z"/>
      <path class="cls-2" d="M120.86,62.24l-41.93,34.3,32.07-15.51,17.51-8.47c-3.7-1.56-7.44-5.01-7.65-10.32Z"/>
      <path class="cls-1" d="M154.76,47.65l.7,9.6,5.51-.4c-2.52,2.93-5.92,4.69-9.55,5.09-6.19.68-12.2-1.85-15.43-7.34-4.48-7.62-1.4-17.68,6.37-21.83,4.58-2.45,11.02-2.41,15.45.88l12.21-6.74c-7.86-10.81-25.59-10.77-35.06-5.42-6.81,3.85-11.03,10.03-13.11,17.41-4.26,15.1,3.87,30.07,18.85,34.66,8.7,2.67,17.87,1.38,24.88-3.54,5.1-3.58,8.74-8.57,10.65-14.31l9.25-.68-.7-9.6-30.01,2.2Z"/>
    </g>
  </g>
</svg>